<svg width="637" height="226" viewBox="0 0 637 226" fill="none" xmlns="http://www.w3.org/2000/svg">
<path d="M65.5178 21C83.7399 22.715 102.078 22.1655 120.361 22.1655C163.203 22.1655 206.046 22.1655 248.889 22.1655C312.17 22.1655 375.452 22.1655 438.734 22.1655C476.224 22.1655 513.714 22.1655 551.204 22.1655C552.081 22.1655 563.053 21.4959 563.053 22.813C563.053 26.5285 546.883 30.5242 544.47 31.4894C510.377 45.1267 471.237 40.8134 435.367 40.8134C381.761 40.8134 328.19 41.9789 274.594 41.9789C255.354 41.9789 236.912 45.127 217.809 46.6408C196.297 48.3455 174.86 50.0532 153.707 54.5403C132.755 58.9846 123.138 58.0144 101.907 61C99.7815 61.2989 75.5072 67.0369 65.5178 67.0369C185.656 49.5435 90.432 78.0245 90.8996 77.9796C152.8 68.1377 190.98 71.9236 243.5 72C283.444 72.0581 328.916 61.9416 368.546 67.0369C401.517 71.2761 434.596 76.1086 467.807 77.9796C495.921 79.5635 525.451 80.767 553.211 85.7496C556.177 86.2818 558.987 87.433 562.017 87.433C572.64 87.433 541.021 90.9003 530.42 91.577C489.705 94.1758 448.294 92.095 407.525 92.095C349.543 92.095 291.284 90.8492 233.349 93.7785C211.369 94.8898 189.528 97.8772 167.563 99.0232C149.61 99.9599 131.663 100.34 113.756 102.002C96.5204 103.601 79.4708 105.219 62.345 107.764C56.8374 108.583 48.4452 108.47 43.4382 111.39C31.2056 118.526 71.6642 108.654 85.5901 106.081C116.99 100.279 146.897 112.944 178.656 112.944C235.987 112.944 294.737 106.115 351.646 112.944C416.987 120.785 482.582 126.135 547.902 134.053C561.42 135.691 578.014 136.812 590.637 142.47C594.168 144.053 597.868 145.627 591.543 145.708C545.248 146.301 498.983 148.039 452.655 148.039C409.511 148.039 372.145 142.47 329 142.47C287.939 142.47 226.683 131.859 185.656 134.053C133.345 136.849 135 138.976 77.5 148.5C111.118 142.932 24.5 158.421 22.5 159.046M22.5 159.046C19.7138 159.917 21 159.046 22.5 159.046ZM22.5 159.046C22.5 159.046 70.5 159.046 101.907 159.046C171.236 157.159 240.453 158.324 309.235 167.593C388.646 178.294 468.545 189.996 548.873 189.996C560.522 189.996 572.269 189.566 583.903 190.255C593.155 190.804 603.355 190.221 612.263 192.975C617.934 194.728 607.798 197.749 606.047 198.155C591.737 201.471 577.014 201.607 562.406 201.651C416.983 202.093 269.5 185 120.361 192.975C94.2933 192.453 6.42752 198.155 32.5 198.155" stroke="#E7FAFD" stroke-width="34" stroke-linecap="round" stroke-linejoin="round"/>
<path d="M173.059 48.161C169.528 48.161 166.318 49.017 163.322 50.622C151.124 54.153 145.025 64.318 145.025 81.01V90.747C145.025 97.274 149.519 102.196 158.4 105.406C177.981 105.406 187.718 111.505 187.718 123.703C183.652 133.44 174.664 138.362 160.861 138.362H159.577C155.297 138.362 150.482 136.329 145.025 132.263C141.708 132.691 140.103 133.868 140.103 135.901V139.539C144.062 145.21 148.556 148.099 153.585 148.099H169.421C171.882 148.099 173.059 147.671 173.059 146.815C184.08 146.815 192.212 139.539 197.455 124.88C197.455 110.97 192.212 102.089 181.619 98.13C163.75 98.13 154.762 94.492 154.762 87.109V85.932C154.762 78.977 155.618 73.734 157.223 70.096C157.223 63.034 164.499 58.968 179.158 57.898H181.619L190.179 59.075L193.817 54.26C192.64 50.194 189.858 48.161 185.257 48.161H173.059ZM220.515 50.622C215.7 50.622 212.918 62.82 212.062 87.109C207.14 115.999 204.679 131.835 204.679 134.724L208.317 137.185H213.239C213.239 135.901 214.095 134.296 215.7 132.263V127.341C215.7 121.349 216.877 115.678 219.338 110.328L257.109 135.901L262.031 134.724V128.625C261.924 127.662 249.726 118.353 225.437 100.591C238.384 90.64 248.549 84.541 255.932 82.294V75.018C255.076 75.018 253.899 74.59 252.294 73.734C247.907 73.734 238.491 78.656 224.153 88.393H221.799C221.799 87.644 222.976 76.73 225.437 55.437C224.902 52.976 223.19 51.371 220.515 50.622ZM274.177 60.359C270.86 62.285 269.255 63.89 269.255 65.174V89.57C269.255 94.492 270.86 107.546 274.177 128.625C274.177 138.362 277.815 143.177 285.091 143.177L326.607 142C331.422 142 333.883 139.111 333.883 133.44V132.263C333.883 127.876 332.278 125.094 329.068 123.703H326.607C324.146 124.238 322.969 127.02 322.969 132.263H320.508C313.018 132.263 302.425 132.691 288.729 133.44C285.519 132.263 283.914 130.979 283.914 129.802V120.065C283.914 119.102 283.058 114.608 281.453 106.583V105.406H311.948C316.014 105.406 318.475 103.801 319.331 100.591C318.475 97.274 316.014 95.669 311.948 95.669H281.453C280.062 95.669 279.313 94.813 279.099 93.208V72.557C279.099 71.166 279.848 70.417 281.453 70.096H325.43C327.891 68.812 329.068 67.528 329.068 66.351V63.997C327.784 61.536 326.607 60.359 325.43 60.359H274.177ZM374.102 48.161C370.571 48.161 367.361 49.017 364.365 50.622C352.167 54.153 346.068 64.318 346.068 81.01V90.747C346.068 97.274 350.562 102.196 359.443 105.406C379.024 105.406 388.761 111.505 388.761 123.703C384.695 133.44 375.707 138.362 361.904 138.362H360.62C356.34 138.362 351.525 136.329 346.068 132.263C342.751 132.691 341.146 133.868 341.146 135.901V139.539C345.105 145.21 349.599 148.099 354.628 148.099H370.464C372.925 148.099 374.102 147.671 374.102 146.815C385.123 146.815 393.255 139.539 398.498 124.88C398.498 110.97 393.255 102.089 382.662 98.13C364.793 98.13 355.805 94.492 355.805 87.109V85.932C355.805 78.977 356.661 73.734 358.266 70.096C358.266 63.034 365.542 58.968 380.201 57.898H382.662L391.222 59.075L394.86 54.26C393.683 50.194 390.901 48.161 386.3 48.161H374.102ZM438.678 48.161C435.147 48.161 431.937 49.017 428.941 50.622C416.743 54.153 410.644 64.318 410.644 81.01V90.747C410.644 97.274 415.138 102.196 424.019 105.406C443.6 105.406 453.337 111.505 453.337 123.703C449.271 133.44 440.283 138.362 426.48 138.362H425.196C420.916 138.362 416.101 136.329 410.644 132.263C407.327 132.691 405.722 133.868 405.722 135.901V139.539C409.681 145.21 414.175 148.099 419.204 148.099H435.04C437.501 148.099 438.678 147.671 438.678 146.815C449.699 146.815 457.831 139.539 463.074 124.88C463.074 110.97 457.831 102.089 447.238 98.13C429.369 98.13 420.381 94.492 420.381 87.109V85.932C420.381 78.977 421.237 73.734 422.842 70.096C422.842 63.034 430.118 58.968 444.777 57.898H447.238L455.798 59.075L459.436 54.26C458.259 50.194 455.477 48.161 450.876 48.161H438.678Z" fill="black"/>
</svg>
