<svg width="1085" height="262" viewBox="0 0 1085 262" fill="none" xmlns="http://www.w3.org/2000/svg">
<path d="M19 244C33.2208 211.067 50.3077 191.747 76.5 182.5C102.692 173.253 128 195.5 147 213.5C166 231.5 215 204.5 215 204.5C254.617 192.694 273 198.5 311.5 213.5C373.208 230.152 393 233.5 424.5 227C456 220.5 500.5 236.665 500.5 236.665C528.5 244 539 248.5 578 219.665C617 190.829 656.5 205.5 673 213.5C689.5 221.5 732 221.5 732 221.5H910" stroke="white" stroke-width="14"/>
<path d="M1040.12 39.1263L1068.32 61.8595C1068.75 62.2062 1068.82 62.8357 1068.47 63.2657L959.155 198.871C959.036 199.018 958.879 199.128 958.7 199.189L930.823 208.746C930.174 208.969 929.499 208.486 929.499 207.8L929.499 175.11C929.499 174.882 929.577 174.66 929.721 174.482L1038.72 39.2772C1039.06 38.8472 1039.69 38.7797 1040.12 39.1263Z" stroke="white" stroke-width="14"/>
</svg>
